<svg width="24" height="16" viewBox="0 0 24 16" fill="none" xmlns="http://www.w3.org/2000/svg">
<path d="M23.5347 8C23.5347 7.73478 23.4501 7.48043 23.2997 7.29289C23.1492 7.10536 22.9451 7 22.7323 7H1.33699C1.1242 7 0.920129 7.10536 0.769664 7.29289C0.619198 7.48043 0.534668 7.73478 0.534668 8C0.534668 8.26522 0.619198 8.51957 0.769664 8.70711C0.920129 8.89464 1.1242 9 1.33699 9H22.7323C22.9451 9 23.1492 8.89464 23.2997 8.70711C23.4501 8.51957 23.5347 8.26522 23.5347 8Z" fill="white"/>
<path d="M23.7778 15C23.7778 14.7348 23.6933 14.4804 23.5428 14.2929C23.3924 14.1054 23.1883 14 22.9755 14H1.58016C1.36737 14 1.16329 14.1054 1.01283 14.2929C0.862362 14.4804 0.777832 14.7348 0.777832 15C0.777832 15.2652 0.862362 15.5196 1.01283 15.7071C1.16329 15.8946 1.36737 16 1.58016 16H22.9755C23.1883 16 23.3924 15.8946 23.5428 15.7071C23.6933 15.5196 23.7778 15.2652 23.7778 15Z" fill="white"/>
<path d="M24 1C24 0.734784 23.9155 0.48043 23.765 0.292894C23.6145 0.105357 23.4105 0 23.1977 0H1.80233C1.58954 0 1.38546 0.105357 1.235 0.292894C1.08453 0.48043 1 0.734784 1 1C1 1.26522 1.08453 1.51957 1.235 1.70711C1.38546 1.89464 1.58954 2 1.80233 2H23.1977C23.4105 2 23.6145 1.89464 23.765 1.70711C23.9155 1.51957 24 1.26522 24 1Z" fill="white"/>
</svg>
