<svg width="147" height="147" viewBox="0 0 147 147" fill="none" xmlns="http://www.w3.org/2000/svg">
<g clip-path="url(#clip0_901_2360)">
<path d="M85.75 32.4012C81.8913 31.2375 77.7262 30.625 73.5 30.625C49.8575 30.625 30.625 49.8575 30.625 73.5C30.625 97.1425 49.8575 116.375 73.5 116.375C97.1425 116.375 116.375 97.1425 116.375 73.5C116.375 69.2738 115.762 65.1087 114.599 61.25H120.969C122.01 65.17 122.5 69.2738 122.5 73.5C122.5 100.511 100.511 122.5 73.5 122.5C46.4888 122.5 24.5 100.511 24.5 73.5C24.5 46.4888 46.4888 24.5 73.5 24.5C77.7262 24.5 81.83 25.0513 85.75 26.0312V32.4012ZM69.825 55.4925L76.195 49.1225C75.3375 49 74.4187 49 73.5 49C59.9637 49 49 59.9637 49 73.5C49 87.0362 59.9637 98 73.5 98C87.0362 98 98 87.0362 98 73.5C98 72.5813 98 71.6625 97.8775 70.805L91.5075 77.175C89.7925 85.5663 82.3812 91.875 73.5 91.875C63.3937 91.875 55.125 83.6062 55.125 73.5C55.125 64.6188 61.4337 57.2075 69.825 55.4925ZM138.241 54.9412C139.956 60.8213 140.875 67.0687 140.875 73.5C140.875 110.679 110.679 140.875 73.5 140.875C36.3212 140.875 6.125 110.679 6.125 73.5C6.125 36.3212 36.3212 6.125 73.5 6.125C79.9313 6.125 86.1787 7.04375 92.0587 8.75875L96.8975 3.85875C89.5475 1.3475 81.6462 0 73.4388 0C32.9525 0 0 32.9525 0 73.5C0 114.048 32.9525 147 73.5 147C114.048 147 147 114.048 147 73.5C147 65.2925 145.652 57.4525 143.202 50.1025L138.303 54.9412H138.241ZM147 24.5V28.8488L126.849 49H102.349L75.705 75.6438L71.3562 71.295L98 44.6512V20.1512L117.906 0H122.5V24.5H147ZM136.771 30.625H116.375V10.29L104.125 22.7238V42.875H124.276L136.71 30.625H136.771Z" fill="url(#paint0_linear_901_2360)"/>
</g>
<defs>
<linearGradient id="paint0_linear_901_2360" x1="73.5" y1="0" x2="73.5" y2="147" gradientUnits="userSpaceOnUse">
<stop stop-color="#158A4A"/>
<stop offset="1" stop-color="white"/>
</linearGradient>
<clipPath id="clip0_901_2360">
<rect width="147" height="147" fill="white"/>
</clipPath>
</defs>
</svg>
