<svg width="147" height="145" viewBox="0 0 147 145" fill="none" xmlns="http://www.w3.org/2000/svg">
<path d="M147 31.6885V112.728C147 116.514 145.598 120.164 143.05 122.994L123.468 145.001H115.236L138.505 118.89C140.036 117.193 140.875 115.001 140.875 112.728V31.6885C140.875 26.6231 136.753 22.501 131.688 22.501C126.622 22.501 122.5 26.6231 122.5 31.6885V86.8135H122.457C122.457 90.3047 121.294 93.796 118.923 96.6196L99.9418 116.256L95.538 111.999L114.372 92.5281C115.75 90.8866 116.412 88.7796 116.369 86.6665V86.6052C116.308 84.486 115.536 82.3606 114.029 80.6823C112.394 78.8632 110.146 77.7791 107.708 77.6443C105.32 77.5586 102.919 78.3365 101.093 79.9718L77.4631 101.716C78.8167 104.037 79.6191 106.665 79.6191 109.396V145.007H73.4941V109.396C73.4941 106.836 72.41 104.368 70.5296 102.634L45.8703 79.9473C44.0818 78.3365 41.7237 77.5586 39.286 77.6505C36.8482 77.7852 34.5942 78.8632 32.965 80.6885C29.9392 84.0634 29.8535 89.2267 32.769 92.6935L51.4625 112.006L47.0586 116.262L28.2242 96.7911C25.7803 93.8878 24.5798 90.3415 24.5676 86.8257H24.5063V31.6885C24.5063 26.6231 20.3842 22.501 15.3188 22.501C10.2535 22.501 6.13135 26.6231 6.13135 31.6885V112.728C6.13135 115.001 6.97047 117.193 8.50172 118.89L31.7706 145.001H23.5386L3.95697 122.994C1.40897 120.164 0.00634766 116.514 0.00634766 112.728V31.6885C0.00634766 23.2482 6.87247 16.376 15.3188 16.376C23.7652 16.376 30.6313 23.2482 30.6313 31.6885V74.5573C36.3337 70.2698 44.4738 70.4597 49.9986 75.4026L73.5063 97.03L96.9835 75.4271C100.058 72.6708 104.003 71.2621 108.057 71.5255C111.12 71.6908 113.993 72.7443 116.381 74.5512V31.6946C116.381 23.2543 123.247 16.3821 131.694 16.3821C140.14 16.3821 147.006 23.2543 147.006 31.6946L147 31.6885ZM55.6642 40.9923L39.8127 31.8477V22.501H62.6038L68.7105 0.230469H78.4247L84.5252 22.501H107.188V31.8048L91.1341 41.2312L99.1027 61.456L91.3362 66.8153L73.5676 52.5563L55.7622 66.6806L48.302 61.1313L55.6642 40.9923ZM63.1918 38.2606L55.6275 58.9447L55.6458 58.957L73.5982 44.7163L91.618 59.1775H91.6302L83.5207 38.5913L100.505 28.626H79.8518L73.7514 6.35547H73.39L67.2833 28.626H46.4828L63.1918 38.2606Z" fill="url(#paint0_linear_901_2341)"/>
<defs>
<linearGradient id="paint0_linear_901_2341" x1="73.5063" y1="0.230469" x2="73.5063" y2="145.007" gradientUnits="userSpaceOnUse">
<stop stop-color="#158A4A"/>
<stop offset="1" stop-color="white"/>
</linearGradient>
</defs>
</svg>
