<svg width="147" height="147" viewBox="0 0 147 147" fill="none" xmlns="http://www.w3.org/2000/svg">
<g clip-path="url(#clip0_901_2346)">
<path d="M93.1733 91.7954C130.254 90.4846 146.926 72.7282 146.926 55.125C146.926 45.1229 138.896 36.9705 128.943 36.7622C131.798 28.8242 133.494 22.1112 134.303 18.5159C135.319 14.0324 134.235 9.3835 131.35 5.76975C128.417 2.10087 124.043 0 119.352 0H27.501C22.8154 0 18.4421 2.10087 15.5083 5.76975C12.6173 9.3835 11.5393 14.0324 12.556 18.5159C13.3645 22.1112 15.055 28.8304 17.9154 36.7622C7.96227 36.9705 -0.0737305 45.1229 -0.0737305 55.125C-0.0737305 72.7282 16.5985 90.4846 53.6793 91.7954C54.5796 94.57 55.0513 97.5345 55.0513 100.609V125.562C55.0513 140.336 41.2945 140.863 39.7265 140.875H30.5513V147H116.301V140.875H107.126C105.558 140.863 91.8013 140.336 91.8013 125.562V100.609C91.8013 97.5406 92.2729 94.57 93.1733 91.7954ZM140.801 55.125C140.801 69.2799 126.928 83.545 96.1684 85.5173C97.5955 83.3306 99.3473 81.3768 101.393 79.7291C113.288 70.1374 121.361 55.6517 126.591 42.875H128.551C135.307 42.875 140.801 48.3691 140.801 55.125ZM6.05127 55.125C6.05127 48.3691 11.5454 42.875 18.3013 42.875H20.2613C25.4981 55.6456 33.5709 70.1374 45.4595 79.7352C47.5053 81.3829 49.257 83.3367 50.6841 85.5173C19.9244 83.545 6.05127 69.2799 6.05127 55.125ZM91.5256 140.875H55.3269C58.7201 137.561 61.1763 132.655 61.1763 125.562V100.609C61.1763 95.5378 60.1105 90.6806 58.1138 86.3319C56.0986 82.1608 52.9381 77.8916 49.306 74.9639C33.3014 62.0524 22.9134 36.6459 18.5218 17.1745C17.9215 14.504 18.5708 11.7416 20.2858 9.59788C22.0498 7.39288 24.6774 6.13113 27.501 6.13113H119.352C122.175 6.13113 124.803 7.39288 126.567 9.59788C128.282 11.7478 128.931 14.5101 128.331 17.1745C123.939 36.6459 113.557 62.0524 97.5526 74.9639C93.9205 77.8916 90.76 82.1608 88.7449 86.338C86.7481 90.6867 85.6824 95.5439 85.6824 100.615V125.569C85.6824 132.661 88.1385 137.567 91.5318 140.881L91.5256 140.875Z" fill="url(#paint0_linear_901_2346)"/>
</g>
<defs>
<linearGradient id="paint0_linear_901_2346" x1="73.4263" y1="0" x2="73.4263" y2="147" gradientUnits="userSpaceOnUse">
<stop stop-color="#00873D"/>
<stop offset="1" stop-color="white"/>
</linearGradient>
<clipPath id="clip0_901_2346">
<rect width="147" height="147" fill="white"/>
</clipPath>
</defs>
</svg>
