<svg width="147" height="147" viewBox="0 0 147 147" fill="none" xmlns="http://www.w3.org/2000/svg">
<g clip-path="url(#clip0_901_2352)">
<path d="M42.6299 85.7507C56.1661 85.7507 67.1299 74.787 67.1299 61.2507C67.1299 47.7145 56.1661 36.7507 42.6299 36.7507C29.0936 36.7507 18.1299 47.7145 18.1299 61.2507C18.1299 74.787 29.0936 85.7507 42.6299 85.7507ZM42.6299 42.8757C52.7361 42.8757 61.0049 51.1445 61.0049 61.2507C61.0049 71.357 52.7361 79.6257 42.6299 79.6257C32.5236 79.6257 24.2549 71.357 24.2549 61.2507C24.2549 51.1445 32.5236 42.8757 42.6299 42.8757ZM85.5049 140.876V143.938C85.5049 145.653 84.1574 147.001 82.4424 147.001C80.7274 147.001 79.3799 145.653 79.3799 143.938V140.876C79.3799 120.602 62.9036 104.126 42.6299 104.126C22.3561 104.126 5.87988 120.602 5.87988 140.876V143.938C5.87988 145.653 4.53238 147.001 2.81738 147.001C1.10238 147.001 -0.245117 145.653 -0.245117 143.938V140.876C-0.245117 117.233 18.9874 98.0007 42.6299 98.0007C66.2724 98.0007 85.5049 117.233 85.5049 140.876ZM147 27.5632L146.755 82.6882C146.755 97.8782 134.382 110.251 119.192 110.251H88.5674C86.8524 110.251 85.5049 108.903 85.5049 107.188C85.5049 105.473 86.8524 104.126 88.5674 104.126H119.192C131.014 104.126 140.63 94.5095 140.63 82.6882L140.875 27.5632C140.875 15.742 131.259 6.1257 119.437 6.1257H57.9424C48.1424 6.1257 39.6286 12.7407 37.1786 22.1732C36.7499 23.827 35.0961 24.807 33.4424 24.3782C31.7886 23.9495 30.8086 22.2957 31.2374 20.642C34.3611 8.4532 45.3249 -0.0605469 57.9424 -0.0605469H119.437C134.627 -0.0605469 147 12.312 147 27.502V27.5632ZM87.9549 66.7632L117.967 36.7507H94.7536C93.0386 36.7507 91.6911 35.4032 91.6911 33.6882C91.6911 31.9732 93.0386 30.6257 94.7536 30.6257H119.254C124.337 30.6257 128.441 34.7295 128.441 39.8132V64.3132C128.441 66.0282 127.094 67.3757 125.379 67.3757C123.664 67.3757 122.316 66.0282 122.316 64.3132V41.0995L92.3036 71.112C90.5274 72.8882 88.1386 73.807 85.8111 73.807C83.4836 73.807 81.0949 72.8882 79.3186 71.112L77.5424 69.3357C76.3174 68.1107 76.3174 66.212 77.5424 64.987C78.7674 63.762 80.6661 63.762 81.8911 64.987L83.6674 66.7632C84.8924 67.927 86.7911 67.927 88.0161 66.7632H87.9549Z" fill="url(#paint0_linear_901_2352)"/>
</g>
<defs>
<linearGradient id="paint0_linear_901_2352" x1="73.3774" y1="-0.0605469" x2="73.3774" y2="147.001" gradientUnits="userSpaceOnUse">
<stop stop-color="#00873D"/>
<stop offset="1" stop-color="white"/>
</linearGradient>
<clipPath id="clip0_901_2352">
<rect width="147" height="147" fill="white"/>
</clipPath>
</defs>
</svg>
