<svg width="166" height="19" viewBox="0 0 166 19" fill="none" xmlns="http://www.w3.org/2000/svg">
<g clip-path="url(#clip0_901_2812)">
<path fill-rule="evenodd" clip-rule="evenodd" d="M40.8255 2.87293L34.7803 16.1474H35.7808L37.416 12.4561H45.0716L46.7198 16.1428H47.7792L41.734 2.86835L40.8262 2.87293H40.8255ZM37.8362 11.5612L41.2713 3.94348L44.6808 11.5612H37.8362ZM65.5837 6.7011C65.5883 6.24286 65.5042 5.78807 65.336 5.36193C65.1681 4.93607 64.9191 4.54886 64.6041 4.22128C63.8263 3.4331 62.5526 2.93648 60.9593 2.93648H55.5276V16.0825H56.4903V10.6354H60.7279L64.8524 16.0825H66.0758L61.8004 10.4644C63.9825 10.1643 65.5844 8.90576 65.5844 6.70897V6.70045L65.5837 6.7011ZM56.4818 9.74569V3.85372H60.9044C63.2545 3.85372 64.625 4.96293 64.625 6.72731C64.625 8.66269 63.0146 9.7719 60.841 9.7719L56.4812 9.74635L56.4818 9.74569ZM84.3045 2.93255H82.9928L74.7399 11.5612V2.93321H73.7772V16.0838H74.7399V12.7392L77.9605 9.42072L83.2869 16.0707H84.5482L78.6624 8.7269L84.3045 2.93321V2.93255ZM109.209 3.85307H113.724V16.1002H114.687V3.85372H119.198V2.93321H109.209V3.85307ZM126.938 16.1002H127.9V2.93321H126.938V16.1009V16.1002ZM145.486 14.3876L136.548 2.93321H135.64V16.0838H136.565V4.39752L145.688 16.0838H146.411V2.93321H145.486V14.3876ZM160.259 9.24907V10.1054H164.464V13.775C163.337 14.7044 161.928 15.2197 160.47 15.2354C157.106 15.2354 155.097 12.7732 155.097 9.46724C155.097 6.34535 157.228 3.72072 160.272 3.72072C161.011 3.69561 161.748 3.81823 162.439 4.08144C163.131 4.34465 163.763 4.74319 164.299 5.25383L164.909 4.54297C163.65 3.40297 162.009 2.80086 160.327 2.85983C156.585 2.85983 154.13 6.02038 154.13 9.46724C154.13 13.0982 156.476 16.0747 160.436 16.0747C162.256 16.0585 164.009 15.3764 165.363 14.1563V9.24055L160.259 9.24907ZM92.2542 3.87535H101.503V2.92862H92.2542V3.87535ZM98.6739 9.06955H92.2542V10.0071H98.6739V9.06955ZM92.2542 16.0838H101.503V15.1463H92.2542V16.0838ZM21.4408 0L17.1614 7.46831L12.9023 0H7.73991V11.0953C9.33848 12.5348 11.0671 13.8163 12.9023 14.9235V9.42072L16.93 16.2725H17.3927L21.4414 9.42072V18.3448H26.579V0H21.4408ZM5.16234 8.45762V0H0C1.23352 3.09047 2.97884 5.94989 5.16234 8.45762ZM0 10.6452V18.3533H5.16234V14.2723C3.34801 13.2029 1.62174 11.9901 0 10.6452ZM7.73991 15.6639V18.3448H12.9023V17.767C11.1357 17.1891 9.41037 16.4861 7.73991 15.6639Z" fill="white"/>
</g>
<defs>
<clipPath id="clip0_901_2812">
<rect width="166" height="19" fill="white"/>
</clipPath>
</defs>
</svg>
