<svg width="24" height="25" viewBox="0 0 24 25" fill="none" xmlns="http://www.w3.org/2000/svg">
<g clip-path="url(#clip0_901_2759)">
<path d="M17.1064 0.5H6.89362C5.06615 0.502701 3.3143 1.22986 2.02208 2.52208C0.729859 3.8143 0.00270137 5.56615 0 7.39362V17.6064C0.00270137 19.4339 0.729859 21.1857 2.02208 22.4779C3.3143 23.7701 5.06615 24.4973 6.89362 24.5H17.1064C18.9339 24.4973 20.6857 23.7701 21.9779 22.4779C23.2701 21.1857 23.9973 19.4339 24 17.6064V7.39362C23.9973 5.56615 23.2701 3.8143 21.9779 2.52208C20.6857 1.22986 18.9339 0.502701 17.1064 0.5ZM12 18.2089C10.8709 18.2089 9.76711 17.8741 8.82829 17.2468C7.88946 16.6195 7.15773 15.7279 6.72563 14.6847C6.29353 13.6415 6.18048 12.4937 6.40076 11.3862C6.62104 10.2788 7.16476 9.26158 7.96317 8.46317C8.76158 7.66476 9.77882 7.12104 10.8862 6.90076C11.9937 6.68048 13.1415 6.79353 14.1847 7.22563C15.2279 7.65773 16.1195 8.38946 16.7468 9.32829C17.3741 10.2671 17.7089 11.3709 17.7089 12.5C17.7062 14.0133 17.1039 15.4638 16.0338 16.5338C14.9638 17.6039 13.5133 18.2062 12 18.2089ZM20.1089 5.89234C20.0776 6.0567 20.0133 6.21303 19.92 6.35191C19.8716 6.42004 19.8187 6.48487 19.7617 6.54596C19.7006 6.60298 19.6358 6.65586 19.5677 6.70426C19.4984 6.75033 19.4249 6.78966 19.3481 6.8217C19.2703 6.85253 19.19 6.87645 19.1081 6.89319C18.9397 6.92859 18.7658 6.92859 18.5974 6.89319C18.4331 6.86184 18.2768 6.79758 18.1379 6.70426C18.0688 6.65716 18.0038 6.6042 17.9438 6.54596C17.8868 6.48487 17.8339 6.42004 17.7855 6.35191C17.6922 6.21303 17.6279 6.0567 17.5966 5.89234C17.5612 5.72397 17.5612 5.55007 17.5966 5.3817C17.6279 5.21734 17.6922 5.06101 17.7855 4.92213C17.8339 4.854 17.8868 4.78917 17.9438 4.72809C18.0038 4.66984 18.0688 4.61688 18.1379 4.56979C18.2768 4.47647 18.4331 4.4122 18.5974 4.38085C18.7662 4.34894 18.9394 4.34894 19.1081 4.38085C19.19 4.39759 19.2703 4.42151 19.3481 4.45234C19.4249 4.48439 19.4984 4.52371 19.5677 4.56979C19.7077 4.6622 19.8276 4.78206 19.92 4.92213C20.0133 5.06101 20.0776 5.21734 20.1089 5.3817C20.1443 5.55007 20.1443 5.72397 20.1089 5.89234ZM16.177 12.5C16.177 13.3261 15.932 14.1337 15.4731 14.8206C15.0141 15.5075 14.3617 16.0429 13.5985 16.3591C12.8352 16.6752 11.9954 16.7579 11.1851 16.5968C10.3748 16.4356 9.63057 16.0378 9.0464 15.4536C8.46223 14.8694 8.06441 14.1252 7.90324 13.3149C7.74207 12.5046 7.82479 11.6648 8.14093 10.9015C8.45708 10.1383 8.99246 9.48591 9.67937 9.02693C10.3663 8.56796 11.1739 8.32298 12 8.32298C13.1074 8.32433 14.1691 8.76484 14.9521 9.54789C15.7352 10.3309 16.1757 11.3926 16.177 12.5Z" fill="white"/>
</g>
<defs>
<clipPath id="clip0_901_2759">
<rect width="24" height="24" fill="white" transform="translate(0 0.5)"/>
</clipPath>
</defs>
</svg>
