<svg width="32" height="32" viewBox="0 0 32 32" fill="none" xmlns="http://www.w3.org/2000/svg">
<path d="M27 0H5C2.23858 0 0 2.23858 0 5V27C0 29.7614 2.23858 32 5 32H27C29.7614 32 32 29.7614 32 27V5C32 2.23858 29.7614 0 27 0Z" fill="#25D366"/>
<path fill-rule="evenodd" clip-rule="evenodd" d="M25.1 6.7375C22.6625 4.3 19.4125 3 16 3C8.85 3 3 8.85 3 16C3 18.275 3.65001 20.55 4.78751 22.5L3 29L9.82502 27.2125C11.775 28.1875 13.8875 28.8375 16 28.8375C23.15 28.8375 29 22.9875 29 15.8375C29 12.425 27.5375 9.175 25.1 6.7375ZM16 26.725C14.05 26.725 12.1 26.2375 10.475 25.2625L10.15 25.1L6.08749 26.2375L7.22501 22.3375L6.89999 21.85C5.76249 20.0625 5.27499 18.1125 5.27499 16.1625C5.27499 10.3125 10.15 5.4375 16 5.4375C18.925 5.4375 21.525 6.575 23.6375 8.525C25.75 10.6375 26.725 13.2375 26.725 16.1625C26.725 21.85 22.0125 26.725 16 26.725ZM21.85 18.6C21.525 18.4375 19.9 17.625 19.575 17.625C19.25 17.4625 19.0875 17.4625 18.925 17.7875C18.7625 18.1125 18.1125 18.7625 17.95 19.0875C17.7875 19.25 17.625 19.25 17.3 19.25C16.975 19.0875 16 18.7625 14.7 17.625C13.725 16.8125 13.075 15.675 12.9125 15.35C12.75 15.025 12.9125 14.8625 13.075 14.7C13.2375 14.5375 13.4 14.375 13.5625 14.2125C13.725 14.05 13.725 13.8875 13.8875 13.725C14.05 13.5625 13.8875 13.4 13.8875 13.2375C13.8875 13.075 13.2375 11.45 12.9125 10.8C12.75 10.3125 12.425 10.3125 12.2625 10.3125C12.1 10.3125 11.9375 10.3125 11.6125 10.3125C11.45 10.3125 11.125 10.3125 10.8 10.6375C10.475 10.9625 9.66251 11.775 9.66251 13.4C9.66251 15.025 10.8 16.4875 10.9625 16.8125C11.125 16.975 13.2375 20.3875 16.4875 21.6875C19.25 22.825 19.7375 22.5 20.3875 22.5C21.0375 22.5 22.3375 21.6875 22.5 21.0375C22.825 20.225 22.825 19.575 22.6625 19.575C22.5 18.7625 22.175 18.7625 21.85 18.6Z" fill="white"/>
</svg>
