<svg width="32" height="32" viewBox="0 0 32 32" fill="none" xmlns="http://www.w3.org/2000/svg">
<path d="M15 5.3494C18.4458 5.3494 18.9157 5.3494 20.3253 5.3494C21.5783 5.3494 22.2048 5.66265 22.6747 5.81928C23.3012 6.13253 23.7711 6.28916 24.241 6.75904C24.7108 7.22892 25.0241 7.6988 25.1807 8.3253C25.3374 8.79518 25.494 9.42169 25.6506 10.6747C25.6506 12.0843 25.6506 12.3976 25.6506 16C25.6506 19.6024 25.6506 19.9157 25.6506 21.3253C25.6506 22.5783 25.3374 23.2048 25.1807 23.6747C24.8675 24.3012 24.7108 24.7711 24.241 25.241C23.7711 25.7108 23.3012 26.0241 22.6747 26.1807C22.2048 26.3374 21.5783 26.494 20.3253 26.6506C18.9157 26.6506 18.6024 26.6506 15 26.6506C11.3976 26.6506 11.0843 26.6506 9.6747 26.6506C8.42169 26.6506 7.79518 26.3374 7.3253 26.1807C6.6988 25.8675 6.22892 25.7108 5.75904 25.241C5.28916 24.7711 4.9759 24.3012 4.81928 23.6747C4.66265 23.2048 4.50602 22.5783 4.3494 21.3253C4.3494 19.9157 4.3494 19.6024 4.3494 16C4.3494 12.3976 4.3494 12.0843 4.3494 10.6747C4.3494 9.42169 4.66265 8.79518 4.81928 8.3253C5.13253 7.6988 5.28916 7.22892 5.75904 6.75904C6.22892 6.28916 6.6988 5.9759 7.3253 5.81928C7.79518 5.66265 8.42169 5.50602 9.6747 5.3494C11.0843 5.3494 11.5542 5.3494 15 5.3494ZM15 3C11.3976 3 11.0843 3 9.6747 3C8.26506 3 7.3253 3.31325 6.54217 3.62651C5.75904 3.93976 4.9759 4.40964 4.19277 5.19277C3.40964 5.9759 3.09639 6.60241 2.62651 7.54217C2.31325 8.3253 2.15663 9.26506 2 10.6747C2 12.0843 2 12.5542 2 16C2 19.6024 2 19.9157 2 21.3253C2 22.7349 2.31325 23.6747 2.62651 24.4578C2.93976 25.241 3.40964 26.0241 4.19277 26.8072C4.9759 27.5904 5.60241 27.9036 6.54217 28.3735C7.3253 28.6868 8.26506 28.8434 9.6747 29C11.0843 29 11.5542 29 15 29C18.4458 29 18.9157 29 20.3253 29C21.7349 29 22.6747 28.6868 23.4578 28.3735C24.241 28.0602 25.0241 27.5904 25.8072 26.8072C26.5904 26.0241 26.9036 25.3976 27.3735 24.4578C27.6868 23.6747 27.8434 22.7349 28 21.3253C28 19.9157 28 19.4458 28 16C28 12.5542 28 12.0843 28 10.6747C28 9.26506 27.6868 8.3253 27.3735 7.54217C27.0602 6.75904 26.5904 5.9759 25.8072 5.19277C25.0241 4.40964 24.3976 4.09639 23.4578 3.62651C22.6747 3.31325 21.7349 3.15663 20.3253 3C18.9157 3 18.6024 3 15 3Z" fill="white"/>
<path d="M15 9.26506C11.241 9.26506 8.26506 12.241 8.26506 16C8.26506 19.759 11.241 22.7349 15 22.7349C18.759 22.7349 21.7349 19.759 21.7349 16C21.7349 12.241 18.759 9.26506 15 9.26506ZM15 20.3855C12.6506 20.3855 10.6145 18.506 10.6145 16C10.6145 13.6506 12.494 11.6145 15 11.6145C17.3494 11.6145 19.3855 13.494 19.3855 16C19.3855 18.3494 17.3494 20.3855 15 20.3855Z" fill="white"/>
<path d="M21.8916 10.6747C22.7566 10.6747 23.4578 9.97346 23.4578 9.10844C23.4578 8.24341 22.7566 7.54217 21.8916 7.54217C21.0265 7.54217 20.3253 8.24341 20.3253 9.10844C20.3253 9.97346 21.0265 10.6747 21.8916 10.6747Z" fill="white"/>
</svg>
