<svg width="33" height="32" viewBox="0 0 33 32" fill="none" xmlns="http://www.w3.org/2000/svg">
<path d="M0.5 5C0.5 2.23858 2.73858 0 5.5 0H27.5C30.2614 0 32.5 2.23858 32.5 5V27C32.5 29.7614 30.2614 32 27.5 32H5.5C2.73858 32 0.5 29.7614 0.5 27V5Z" fill="black"/>
<path d="M13.8411 12.7033V11.6451C13.4786 11.5967 13.11 11.5664 12.7294 11.5664C8.19173 11.5605 4.5 15.2552 4.5 19.8027C4.5 22.5905 5.88969 25.0578 8.01651 26.5515C6.64495 25.082 5.8051 23.1045 5.8051 20.9396C5.8051 16.4586 9.39411 12.8061 13.8411 12.7033Z" fill="#25F4EE"/>
<path d="M14.0398 24.7012C16.064 24.7012 17.7195 23.0866 17.792 21.079L17.7981 3.13688H21.0729C21.0064 2.76799 20.9702 2.38702 20.9702 2H16.499L16.4929 19.9421C16.4205 21.9498 14.7649 23.5643 12.7408 23.5643C12.1124 23.5643 11.5203 23.4071 10.9946 23.1289C11.6713 24.0783 12.7831 24.7012 14.0398 24.7012Z" fill="#25F4EE"/>
<path d="M27.1968 9.2274V8.22966C25.9461 8.22966 24.7859 7.86076 23.8071 7.21973C24.6772 8.21756 25.8554 8.94325 27.1968 9.2274Z" fill="#25F4EE"/>
<path d="M23.8031 7.21855C22.8484 6.12404 22.2744 4.6969 22.2744 3.13672H21.0781C21.3862 4.84203 22.4013 6.30547 23.8031 7.21855Z" fill="#FE2C55"/>
<path d="M12.7372 16.0363C10.6647 16.0363 8.979 17.7235 8.979 19.7977C8.979 21.243 9.80073 22.5008 10.9971 23.1297C10.55 22.5129 10.2841 21.757 10.2841 20.9346C10.2841 18.8604 11.9698 17.1732 14.0423 17.1732C14.429 17.1732 14.8036 17.2397 15.154 17.3486V12.7769C14.7915 12.7285 14.423 12.6982 14.0423 12.6982C13.9758 12.6982 13.9154 12.7043 13.8489 12.7043V16.2117C13.4925 16.1028 13.1239 16.0363 12.7372 16.0363Z" fill="#FE2C55"/>
<path d="M27.1933 9.22656V12.7037C24.8731 12.7037 22.7222 11.9599 20.9699 10.7021V19.8031C20.9699 24.3446 17.2782 28.0455 12.7345 28.0455C10.9823 28.0455 9.35093 27.4891 8.01562 26.5519C9.52011 28.1664 11.6651 29.1824 14.0397 29.1824C18.5772 29.1824 22.275 25.4875 22.275 20.94V11.8389C24.0272 13.0968 26.1782 13.8406 28.4984 13.8406V9.3657C28.0452 9.3657 27.6102 9.31727 27.1933 9.22656Z" fill="#FE2C55"/>
<path d="M20.9728 19.8028V10.7017C22.7251 11.9596 24.8761 12.7033 27.1963 12.7033V9.22622C25.8549 8.94207 24.6767 8.21638 23.8066 7.21855C22.4048 6.30547 21.3958 4.84203 21.0755 3.13672H17.8007L17.7947 21.0787C17.7222 23.0864 16.0666 24.701 14.0426 24.701C12.7858 24.701 11.6801 24.0782 10.9913 23.1348C9.79492 22.4998 8.9732 21.2481 8.9732 19.8028C8.9732 17.7286 10.6589 16.0414 12.7314 16.0414C13.1181 16.0414 13.4927 16.1079 13.8431 16.2168V12.7094C9.39615 12.8062 5.80713 16.4587 5.80713 20.9397C5.80713 23.1046 6.64698 25.076 8.01854 26.5515C9.35385 27.4888 10.9852 28.0452 12.7374 28.0452C17.2751 28.0452 20.9728 24.3443 20.9728 19.8028Z" fill="white"/>
</svg>
