<svg width="16" height="16" viewBox="0 0 16 16" fill="none" xmlns="http://www.w3.org/2000/svg">
<path d="M4.271 5.83398C4.30146 5.83425 4.33149 5.83788 4.36084 5.84375L4.4458 5.86914C4.47319 5.88032 4.49928 5.89363 4.52295 5.90918L4.5874 5.96094L4.59326 5.9668L7.66748 8.88867L8.01123 9.21582L8.35596 8.88867L11.4233 5.97266C11.5036 5.89914 11.6165 5.85447 11.7378 5.85547C11.8287 5.85628 11.9138 5.8832 11.9839 5.92773L12.0493 5.97754C12.1077 6.03298 12.1437 6.10056 12.1587 6.16992L12.1665 6.23926C12.1674 6.33184 12.1304 6.42626 12.0552 6.50098L8.32666 10.0449C8.24714 10.1205 8.13406 10.166 8.01123 10.166C7.9193 10.1659 7.83316 10.1406 7.76221 10.0957L7.6958 10.0449L3.9624 6.49707H3.96338L3.95654 6.49121L3.90283 6.43164L3.86475 6.36523C3.85452 6.3426 3.84653 6.31941 3.84131 6.2959L3.8335 6.22461C3.83328 6.20062 3.83549 6.17613 3.84033 6.15234L3.86182 6.08301C3.87162 6.06024 3.88415 6.03776 3.89893 6.0166L3.95166 5.95605C3.97137 5.93736 3.99327 5.92034 4.01709 5.90527L4.09424 5.86621C4.12173 5.85552 4.15078 5.84719 4.18018 5.8418L4.271 5.83398Z" fill="#111928" stroke="#111928"/>
</svg>
