<svg width="24" height="22" viewBox="0 0 24 22" fill="none" xmlns="http://www.w3.org/2000/svg">
<path d="M19.4409 17.3054C19.6297 17.0998 19.7567 16.8529 19.7939 16.619C19.8311 16.3851 19.7755 16.1834 19.6392 16.0582L5.93811 3.47198C5.80184 3.34681 5.59613 3.30843 5.36623 3.36529C5.13633 3.42215 4.90107 3.5696 4.7122 3.77519C4.52334 3.98079 4.39634 4.22769 4.35914 4.46158C4.32195 4.69547 4.37761 4.89719 4.51388 5.02237L18.215 17.6086C18.3512 17.7338 18.5569 17.7722 18.7868 17.7153C19.0167 17.6584 19.252 17.511 19.4409 17.3054Z" fill="white"/>
<path d="M4.71245 17.3054C4.52358 17.0998 4.39659 16.8529 4.35939 16.619C4.3222 16.3851 4.37786 16.1834 4.51412 16.0582L18.2152 3.47198C18.3515 3.34681 18.5572 3.30843 18.7871 3.36529C19.017 3.42215 19.2523 3.5696 19.4411 3.77519C19.63 3.98079 19.757 4.22769 19.7942 4.46158C19.8314 4.69547 19.7757 4.89719 19.6394 5.02237L5.93835 17.6086C5.80209 17.7338 5.59638 17.7722 5.36648 17.7153C5.13657 17.6584 4.90131 17.511 4.71245 17.3054Z" fill="white"/>
</svg>
